<svg xmlns="http://www.w3.org/2000/svg" width="256" height="256"><path fill-opacity=".016" d="M0 128.004v128.004l128.25-.254 128.25-.254.254-127.75L257.008 0H0v128.004m.485.496c0 70.4.119 99.053.265 63.672.146-35.38.146-92.98 0-128C.604 29.153.485 58.1.485 128.5" fill="#1f1b22" fill-rule="evenodd"/><path fill-opacity=".063" d="M142 29.392c-6.118 1.71-92.1 37.087-99.092 40.771-18.091 9.534-28.619 33.243-23.478 52.877 1.219 4.656 40.938 102.661 42.061 103.784.386.387 34.332-13.313 35.242-14.224.254-.253-8.583-22.489-19.636-49.413C66.044 136.263 57 112.882 57 111.228c0-1.653.787-3.93 1.75-5.059 1.55-1.817 28.976-13.783 29.763-12.985.172.174 9.832 23.491 21.469 51.816 11.636 28.325 21.504 51.856 21.929 52.292.425.435 8.696-2.446 18.38-6.404l17.608-7.195-1.506-3.596c-11.554-27.61-41.39-100.876-41.379-101.615.018-1.304 26.166-11.732 29.416-11.732 5.713 0 6.306 1.135 26.955 51.535 10.937 26.694 20.227 49.087 20.644 49.763.558.902 5.094-.542 17.118-5.449 8.997-3.672 16.951-7.041 17.674-7.488 1.008-.624-3.269-11.969-18.365-48.712-10.825-26.344-20.807-50.125-22.184-52.845-3.461-6.836-12.22-15.715-19.143-19.404-10.91-5.816-24.673-7.679-35.129-4.758" fill="#1f1b22" fill-rule="evenodd"/><path fill-opacity=".281" d="M144 29.393c-8.044 1.793-98.562 39.274-104.863 43.421C22.978 83.45 14.616 106.524 20.224 125c1.52 5.006 40.731 100.372 41.574 101.113.49.431 31.54-11.649 34.915-13.583.116-.067-9.014-22.571-20.29-50.009-21.717-52.846-21.782-53.064-17.121-57.239 1.209-1.083 8.32-4.465 15.803-7.516l13.604-5.547 20.771 50.64c11.424 27.853 21.277 51.619 21.896 52.815 1.115 2.156 1.262 2.116 18.124-4.841 9.35-3.857 17.166-7.176 17.369-7.375.202-.199-9.111-23.446-20.696-51.66-11.586-28.214-21.202-51.939-21.369-52.723-.327-1.533 22.91-11.825 28.9-12.8 6.026-.981 7.275 1.353 28.737 53.725 10.931 26.675 19.954 48.613 20.051 48.75.096.138 8.076-3.001 17.731-6.975 16.022-6.594 17.487-7.403 16.769-9.25-9.113-23.448-40.995-99.3-43.204-102.791-6.164-9.738-18.087-17.629-30.666-20.296-7.891-1.672-11.777-1.681-19.122-.045" fill="#1f1b22" fill-rule="evenodd"/><path fill-opacity=".107" d="M140 30.895c-8.763 2.848-94.071 38.091-98.626 40.746-5.548 3.232-13.607 11.911-16.661 17.942-5.81 11.472-7.336 25.588-3.902 36.073 3.007 9.181 40.664 100.29 41.463 100.317 1.495.052 33.717-13.481 33.721-14.162.003-.38-8.995-22.592-19.995-49.361-11-26.769-20-49.921-20-51.45 0-1.528.787-3.736 1.75-4.907 2.032-2.472 30.249-14.539 31.275-13.375.38.43 10.021 23.547 21.425 51.372 11.403 27.824 21.104 51.189 21.557 51.921.643 1.041 4.499-.194 17.658-5.659 10.608-4.405 16.73-7.464 16.552-8.271-.156-.704-9.718-24.219-21.25-52.256S124 78.515 124 78.108C124 76.796 151.509 66 154.855 66c2.03 0 4.064.838 5.459 2.25 1.253 1.268 10.892 23.407 22.095 50.75 10.93 26.675 20.044 48.697 20.253 48.937.208.241 8.047-2.67 17.418-6.469 12.921-5.238 16.935-7.277 16.609-8.438-1.175-4.187-40.203-98.09-42.239-101.63-5.268-9.158-18.662-18.827-29.562-21.339-6.814-1.571-18.715-1.172-24.888.834" fill="#1f1b22" fill-rule="evenodd"/></svg>