<svg xmlns="http://www.w3.org/2000/svg" width="256" height="256"><path fill-opacity=".016" d="M0 128.004v128.004l128.25-.254 128.25-.254.254-127.75L257.008 0H0v128.004m.485.496c0 70.4.119 99.053.265 63.672.146-35.38.146-92.98 0-128C.604 29.153.485 58.1.485 128.5" fill="#1976D2" fill-rule="evenodd"/><path fill-opacity=".219" d="M23.593 2.476C13.237 6.733 5.93 14.225 2.07 24.543-.016 30.118-.027 30.729.236 129.326L.5 228.5l2.66 5.675c3.725 7.946 9.87 14.222 17.696 18.075l6.602 3.25h201.084l6.602-3.25c7.945-3.911 14.111-10.278 17.507-18.075 1.359-3.121 2.894-6.456 3.41-7.411 1.062-1.964 1.343-199.501.282-198.44-.361.361-1.69-1.885-2.952-4.991-4.083-10.045-11.695-17.432-21.896-21.249C225.987.023 224.825 0 127.712.024L29.5.047l-5.907 2.429M.455 128c-.015 54.725.214 91.625.509 82 .324-10.574.836-16.429 1.294-14.795.904 3.228 5.767 7.074 11.11 8.788 2.365.758 7.226 1.08 12.507.827 7.665-.366 9.593-.881 17.131-4.577 9.994-4.899 17.556-10.452 28.251-20.745 4.285-4.124 8.005-7.498 8.267-7.498.262 0 .476 2.403.476 5.34 0 13.019-12.48 27.114-25.908 29.261-4.013.642-5.093 1.662-3.078 2.908 1.711 1.057 12.21-1.562 17.341-4.326 5.776-3.111 11.611-9.458 14.68-15.967 2.578-5.467 3.691-15.695 2.179-20.031-.973-2.793-.633-3.534 4.983-10.842 8.961-11.66 21.627-30.347 29.379-43.343 3.773-6.325 6.987-11.688 7.142-11.917 1.204-1.777.735 5.416-2.639 40.463-2.114 21.975-3.646 40.292-3.403 40.704.902 1.531 5.293.678 7.718-1.5 1.937-1.739 44.339-65.689 69.345-104.583 1.886-2.933 3.636-5.125 3.89-4.871.254.254-3.145 14.579-7.554 31.833-9.165 35.863-13.85 58.391-14.734 70.855-.615 8.653-.614 8.656 2.272 10.933 5.829 4.599 13.098 1.814 45.301-17.35 10.678-6.355 20.24-12.302 21.25-13.215 2.009-1.819 2.459-4.352.773-4.352-.585 0-8.122 4.206-16.75 9.347-30.139 17.959-34.989 20.006-38.205 16.132-2.26-2.723-.372-11.711 13.016-61.979C219.361 69.084 223 53.47 223 46.844c0-2.186-.627-3.132-2.565-3.869-5.973-2.271-9.506-.104-12.272 7.525-.997 2.75-16.802 27.5-35.123 55-36.76 55.18-33.901 50.99-34.409 50.417-.204-.229 2.729-24.267 6.517-53.417 3.892-29.957 6.729-55.348 6.524-58.4-.412-6.154-2.539-8.576-6.672-7.597-5.675 1.346-10.867 11.218-15.49 29.456-6.097 24.053-20.493 51.692-41.96 80.56-8.297 11.157-9.768 12.555-11.042 10.494-.335-.542-3.797-1.954-7.693-3.138-21.607-6.563-55.872 5.596-64.737 22.972-1.143 2.24-2.186 4.879-2.319 5.863-.132.985-.474-33.31-.759-76.21l-.518-78L.455 128M39.5 160.877c-19.996 4.942-32.857 16.969-31.218 29.192C9.238 197.197 14.718 201 24.031 201c9.712 0 23.271-9.149 40.919-27.61l9.384-9.815-4.917-2.275c-6.147-2.843-19.368-3.03-29.917-.423" fill="#1976D2" fill-rule="evenodd"/><path fill-opacity=".117" d="M27.5 1.392C16.4 4.939 8.457 11.786 3.595 22L.5 28.5v199l3.095 6.5c3.932 8.261 10.144 14.473 18.405 18.405l6.5 3.095h199l6.5-3.095c3.575-1.702 8.48-5.077 10.9-7.5 4.288-4.293 10.098-14.703 10.099-18.096.001-.93.451-1.969 1.001-2.309.656-.405 1-34.03 1-97.618 0-64.412-.336-96.792-1-96.382-.55.34-1-.196-1.001-1.191-.001-3.496-5.745-13.855-10.099-18.214-2.42-2.423-7.325-5.798-10.9-7.5L227.5.5l-98-.193C52.269.155 30.652.385 27.5 1.392M.466 128c-.011 53.625.116 90.363.283 81.641l.303-15.86 2.227 3.306c2.972 4.41 7.235 6.751 14.68 8.063 15.057 2.652 32.404-5.419 52.712-24.523 4.46-4.195 8.439-7.627 8.842-7.627 1.456 0-.194 10.709-2.329 15.12-4.392 9.073-14.675 16.784-24.507 18.378-3.306.536-3.65.829-2.544 2.163.992 1.195 2.401 1.393 6.261.881 18.243-2.42 33.096-21.833 29.507-38.567l-1.061-4.949 7.33-9.749c8.915-11.859 23.76-33.995 29.85-44.515 4.36-7.531 6.197-9.574 5.403-6.012-.215.963-2.015 19.022-4.002 40.132-3.742 39.772-3.74 40.051.252 40.103 3.244.042 9.972-9.302 42.467-58.973 19.403-29.66 35.349-53.833 35.436-53.719.086.114-4.009 16.857-9.101 37.207-13.234 52.897-16.084 71.891-11.475 76.5 5.077 5.077 13.642 1.957 43.902-15.994 19.01-11.278 24.671-15.094 24.918-16.799.204-1.412-.206-2.207-1.138-2.207-.801 0-9.435 4.745-19.187 10.545-29.512 17.552-33.518 19.094-35.614 13.705-1.446-3.717-.199-9.296 14.135-63.25C220.778 64.962 223 55.435 223 48.742c0-5.311-1.297-6.742-6.111-6.742-4.32 0-8.251 3.82-9.423 9.156-.763 3.472-67.706 104.623-68.221 103.08-.171-.515 2.628-23.87 6.222-51.9C149.06 74.306 152 48.914 152 45.909c0-6.33-1.979-9.909-5.48-9.909-6.236 0-12.288 10.414-17.435 30-3.711 14.121-5.7 19.407-12.65 33.616-6.719 13.734-18.413 32.518-29.374 47.183l-8.306 11.111-5.127-2.654c-7.317-3.786-22.671-4.39-34.741-1.367-16.732 4.191-30.206 13.091-35.302 23.317l-2.572 5.161-.263-75.933C.54 45.851.483 50.21.466 128m43.609 32.087c-15.793 3.099-28.792 10.518-33.05 18.865C4.641 191.465 10.082 200.5 24 200.5c7.246 0 11.267-1.855 22.5-10.381 7.514-5.703 26.666-25.102 26.209-26.545-1.119-3.528-17.967-5.579-28.634-3.487" fill="#1976D2" fill-rule="evenodd"/><path fill-opacity=".405" d="M30.132 1.078c-6.819 1.34-13.181 4.872-18.681 10.373-5.761 5.76-8.972 11.752-10.436 19.47-.634 3.344-.99 33.54-.948 80.465.056 62.309.283 74.316 1.328 70.435 3.888-14.442 22.65-26.601 46.324-30.024 9.59-1.387 19.704-.152 26.292 3.208 2.15 1.097 4.155 1.995 4.455 1.995.971 0 17.144-22.276 23.517-32.393 13.674-21.704 21.863-39.713 27.005-59.392C134.005 46.019 139.77 36 145.797 36c3.405 0 5.95 2.472 6.759 6.566.45 2.278-10.368 92.694-13.094 109.434-.766 4.699 66.109-95.255 68.053-101.717C209.51 43.656 211.43 42 217.12 42c6.853 0 7.457 1.524 5.486 13.829-.852 5.319-7.428 31.721-14.614 58.671-13.258 49.724-15.395 60.105-12.975 63.02 2.58 3.11 7.975.608 39.285-18.22 7.591-4.565 14.18-8.3 14.643-8.3 1.953 0 1.818 3.152-.231 5.381-2.744 2.985-45.134 28.023-52.112 30.781-2.806 1.109-7.088 2.049-9.515 2.088-3.611.059-4.839-.422-6.75-2.645-2.744-3.19-2.858-5.57-.892-18.605 2.353-15.601 6.171-32.865 14.033-63.457 4.093-15.926 7.337-29.062 7.209-29.189-.128-.128-15.972 23.859-35.21 53.303-19.237 29.445-36.215 54.424-37.729 55.509-4.176 2.994-7.184 2.129-7.53-2.166-.155-1.925 1.301-19.895 3.234-39.932 1.934-20.038 3.392-36.557 3.241-36.708-.152-.152-1.792 2.292-3.645 5.432-6.587 11.16-21.806 33.868-29.789 44.448-8.002 10.606-8.09 10.788-7.066 14.495 3.534 12.8-5.936 30.686-19.693 37.194-6.023 2.85-17 3.559-17 1.099 0-.959 1.53-1.734 4.389-2.222 11.75-2.006 21.914-11.598 25.104-23.69.636-2.412.875-5.507.531-6.878-.6-2.39-.965-2.165-8.825 5.459-13.239 12.839-25.138 20.63-36.593 23.961-10.213 2.969-25.506.385-30.037-5.075-.714-.86-1.93-3.256-2.701-5.324C.096 190.852 0 192.186.343 208.5c.286 13.62.784 19.095 2.049 22.5 3.695 9.948 13.06 19.158 23.108 22.725 4.658 1.654 11.668 1.775 102.5 1.775 90.37 0 97.866-.128 102.5-1.754 10.744-3.768 21.232-14.994 23.587-25.246.632-2.75 1.525-5.748 1.985-6.663 1.135-2.257 1.206-189.127.072-188.426-.488.301-1.125-1.235-1.418-3.415-.814-6.067-4.601-12.97-10.177-18.545-5.76-5.761-11.752-8.972-19.47-10.436C218.48-.237 36.521-.178 30.132 1.078M.476 110c0 42.075.123 59.288.274 38.25.15-21.037.15-55.462 0-76.5C.599 50.713.476 67.925.476 110m46.685 50.042c-7.673 1.036-14.744 3.278-22.373 7.092C14.655 172.201 9 179.738 9 188.179c0 7.841 5.031 11.878 14.982 12.019 4.856.069 6.856-.477 11.688-3.191 8.473-4.757 16.505-11.424 27.817-23.089l9.987-10.298-3.987-1.709c-5.113-2.191-14.267-2.957-22.326-1.869M.405 206.5c.001 8.8.154 12.266.34 7.703.185-4.564.184-11.764-.003-16-.187-4.237-.338-.503-.337 8.297" fill="#1976D2" fill-rule="evenodd"/></svg>