<svg xmlns="http://www.w3.org/2000/svg" width="256" height="256"><path fill-opacity=".016" d="M0 128.004v128.004l128.25-.254 128.25-.254.254-127.75L257.008 0H0v128.004m.485.496c0 70.4.119 99.053.265 63.672.146-35.38.146-92.98 0-128C.604 29.153.485 58.1.485 128.5" fill="#1976D2" fill-rule="evenodd"/><path fill-opacity=".251" d="M25.3 1.852C15.325 5.318 7.344 12.66 2.769 22.58L.5 27.5v201l2.688 5.736c3.435 7.328 11.248 15.141 18.576 18.576L27.5 255.5l98.428.269c108.396.297 103.735.539 113.449-5.895 6.025-3.991 11.911-11.327 14.118-17.595.925-2.629 2.092-5.56 2.594-6.515C257.388 223.288 257.3 28.697 256 29.5c-.55.34-1.004-.196-1.01-1.191-.02-3.687-5.054-12.468-9.96-17.374-2.782-2.782-7.64-6.268-10.794-7.747L228.5.5l-99-.227C36.276.059 30.197.151 25.3 1.852M.481 128c0 54.175.121 76.337.269 49.25.148-27.088.148-71.413 0-98.5C.602 51.662.481 73.825.481 128m100.564-35.834c-1.059 1.741-2.439 5.454-3.068 8.25-1.598 7.111-9.984 23.736-16.229 32.176l-5.248 7.091-3.5-1.448c-6.828-2.825-19.619.43-25.232 6.421-4.092 4.368-4.604 8.599-1.425 11.778 5.15 5.15 15.205 2.488 25.239-6.683L77 144.799l-.004 2.851c-.005 4.382-3.53 9.236-8.267 11.386-4.788 2.174-3.4 2.703 1.553.593 5.387-2.296 7.838-5.8 8.605-12.305.546-4.63 1.524-6.969 4.737-11.329 2.227-3.022 5.976-8.554 8.332-12.292 2.355-3.739 4.466-6.614 4.69-6.391.223.224-.317 7.708-1.202 16.632-.884 8.925-1.356 16.477-1.05 16.784 1.166 1.165 3.951-2.558 18.211-24.337 8.077-12.338 14.822-22.297 14.988-22.132.166.166-1.018 5.463-2.63 11.771-4.148 16.235-7.103 31.952-6.415 34.121 1.086 3.422 5.676 2.1 17.876-5.148 6.478-3.848 12.182-6.747 12.677-6.441.494.306.899 3.604.899 7.33 0 7.213.375 8.285 2.598 7.432 1.049-.402 1.402-2.653 1.402-8.931 0-8.381-.004-8.393-2.611-8.393-1.436 0-6.274 2.196-10.75 4.879-15.898 9.531-17.274 9.762-16.309 2.739.312-2.265 2.868-12.668 5.682-23.118 5.52-20.503 6.845-27.853 5.202-28.868-1.472-.909-4.214.336-4.214 1.914 0 1.444-29.076 45.712-29.648 45.139-.191-.191 1.02-10.851 2.691-23.688 1.672-12.837 2.81-23.938 2.529-24.669-.889-2.318-3.535-1.438-5.527 1.838m48.291 36.401c-.331.862-.122 2.047.464 2.633 1.555 1.555 4.2.19 4.2-2.169 0-2.466-3.753-2.839-4.664-.464m52.028-.074c-.346.903-.15 2.121.436 2.707 1.524 1.524 4.41.131 4.012-1.935-.443-2.302-3.647-2.858-4.448-.772m-42.65 8.126c-.34.341.088 1.326.952 2.19 1.242 1.242 1.44 2.855.943 7.705-.689 6.728-.412 7.509 2.404 6.772 1.554-.406 1.95-1.589 2.192-6.537.222-4.541.744-6.315 2.104-7.145 1.446-.883 2.098-.714 3.253.842 1.698 2.286 3.845.915 3.272-2.09-.475-2.488-4.525-2.945-6.916-.781-1.752 1.585-1.918 1.592-1.918.08 0-1.151-.864-1.655-2.833-1.655-1.559 0-3.112.279-3.453.619m20.848.962c-1.663 1.662-1.274 3.419.756 3.419.661 0 1.763-.9 2.45-2 1.613-2.584 3.867-2.55 5.274.078 1.689 3.156.469 4.922-3.4 4.922-4.743 0-8.137 2.891-7.301 6.221.759 3.027 4.316 4.24 8.155 2.78 1.78-.676 3.262-.665 4.569.034 1.383.74 2.577.681 4.185-.206 1.825-1.007 1.941-1.307.613-1.587-1.258-.265-1.733-1.853-2.052-6.862-.269-4.23-.923-6.838-1.863-7.433-2.382-1.507-9.649-1.103-11.386.634M199.5 137c-.34.55-.141 1 .441 1 .649 0 1.059 2.839 1.059 7.333 0 4.034.251 7.585.558 7.892.307.306 1.432.329 2.5.05 1.728-.452 1.942-1.433 1.942-8.892V136h-2.941c-1.618 0-3.219.45-3.559 1m-142.368 4.281C52.048 142.905 47 148.119 47 151.746c0 3.386 1.264 4.78 5.24 5.778 3.622.909 9.54-2.616 16.76-9.983 4.494-4.586 5.226-5.786 4-6.561-1.97-1.247-11.599-1.064-15.868.301m126.118 4.381c-.687.278-1.25 1.592-1.25 2.921 0 2.019.494 2.417 3 2.417 2.667 0 3-.333 3-3 0-2.985-1.417-3.683-4.75-2.338" fill="#1976D2" fill-rule="evenodd"/><path fill-opacity=".303" d="M28.746 1.074C18.343 3.559 8.121 12.166 3.3 22.5l-2.8 6v199l2.798 6c3.673 7.875 11.375 15.61 19.097 19.179L28.5 255.5h199l6-2.8c3.3-1.539 8.189-4.914 10.865-7.5 4.933-4.767 10.633-14.891 10.634-18.891.001-1.205.451-2.469 1.001-2.809.655-.405 1-33.697 1-96.618 0-63.745-.336-95.792-1-95.382-.556.344-1-.406-1.001-1.691-.001-4.104-5.64-14.183-10.634-19.009-2.676-2.586-7.565-5.961-10.865-7.5l-6-2.8L130 .338C75.293.248 30.852.57 28.746 1.074M.48 128c0 53.075.122 74.788.27 48.25.148-26.537.148-69.962 0-96.5C.602 53.213.48 74.925.48 128m101.161-37.156c-.918 1.015-2.943 5.908-4.5 10.874-3.138 10.01-8.989 21.507-15.814 31.074-3.869 5.425-4.787 6.183-6.657 5.5-1.194-.436-5.344-.786-9.222-.779-8.453.016-15.652 3.182-19.198 8.444-7.349 10.904 4.867 17.734 17.514 9.793 2.847-1.787 6.989-4.75 9.206-6.584 3.504-2.899 4.03-3.082 4.03-1.398 0 3.316-4.317 8.628-9.008 11.084l-4.492 2.353 3.76-.541c2.067-.298 5.07-1.475 6.672-2.615 3.286-2.341 6.586-9.842 5.64-12.823-.454-1.43 1.424-4.896 6.849-12.647 4.112-5.872 7.754-11.555 8.095-12.628 1.6-5.043 1.935-.851.823 10.299-1.761 17.656-1.712 20.97.301 20.573.903-.178 8.172-10.341 16.154-22.586 7.982-12.245 14.696-22.08 14.92-21.856.224.223-.736 4.617-2.134 9.763-3.199 11.784-6.58 28.191-6.58 31.931 0 6.52 4.836 5.631 20.5-3.769l10-6.001.291 7.91.292 7.91 2.696-.313c2.462-.285 2.726-.738 3.048-5.223.193-2.701.055-6.893-.308-9.314-.64-4.266-.753-4.383-3.631-3.751-1.633.359-7.083 3.084-12.111 6.055-5.029 2.971-10.006 5.676-11.06 6.011-4.412 1.4-4.214-.99 2.049-24.816 7.768-29.552 7.952-30.561 5.707-31.423-2.165-.831-4.856.768-5.327 3.167-.448 2.278-27.304 42.657-27.945 42.016-.261-.261.784-10.325 2.323-22.365 1.538-12.04 2.514-22.629 2.168-23.53-.831-2.166-2.985-2.078-5.051.205M150.2 127.2c-2.109 2.109-1.44 4.8 1.193 4.8 2.758 0 4.172-2.614 2.502-4.627-1.399-1.686-2.147-1.721-3.695-.173m51.371.371c-.817.818-1.223 2.173-.901 3.011.864 2.253 4.77 1.336 5.133-1.205.381-2.671-2.245-3.792-4.232-1.806m-41.071 8.142c-2.776.668-4.334 2.287-2.2 2.287 1.458 0 1.7 1.137 1.7 8 0 7.867.042 8 2.5 8 2.409 0 2.5-.236 2.5-6.465 0-5.368.328-6.64 1.934-7.5 2.602-1.392 3.066-1.311 3.066.538 0 2.74 3.472 1.148 3.808-1.746.41-3.534-3.064-4.81-5.962-2.188-1.895 1.715-2.065 1.72-2.978.09-.532-.951-1.283-1.677-1.668-1.613-.385.064-1.6.332-2.7.597m21.595.159c-3.062.857-4.965 3.658-3.49 5.133 1.346 1.346 4.395.228 4.395-1.612 0-.819 1.03-1.393 2.5-1.393 1.988 0 2.5.503 2.5 2.455 0 2.05-.618 2.565-3.75 3.126-2.062.37-4.537 1.36-5.5 2.201-2.019 1.763-2.295 5.273-.55 7.018 1.401 1.401 6.67 1.568 8.711.276.87-.551 2.115-.452 3.253.258 1.319.824 2.323.849 3.53.087 2.132-1.345 2.933-3.576 1.15-3.202-.978.204-1.48-1.485-1.844-6.195-.437-5.657-.816-6.636-3-7.735-2.718-1.369-4.219-1.448-7.905-.417m19.905-.209c-.825.272-2.175.715-3 .983-1.261.411-1.221.645.25 1.471 1.422.798 1.75 2.378 1.75 8.433 0 7.309.048 7.45 2.538 7.45h2.537l-.287-9.169c-.282-8.992-.768-10.167-3.788-9.168M58.479 141.34c-5.505 1.798-8.953 4.21-10.325 7.221-1.551 3.404-1.454 4.996.417 6.868 2.466 2.465 7.584 1.905 12.508-1.37 5.463-3.633 13.54-11.773 12.607-12.706-1.311-1.312-11.204-1.32-15.207-.013m125.05 5.015c-2.499 1.827-1.319 4.896 1.717 4.465 1.615-.229 2.344-1.099 2.57-3.07.355-3.08-1.262-3.606-4.287-1.395" fill="#1976D2" fill-rule="evenodd"/><path fill-opacity=".214" d="M29.5 1.401c-7.759 1.911-12.562 4.59-18.039 10.063-5.776 5.773-8.792 11.584-10.423 20.083C.217 35.821-.02 64.005.198 131.5c.283 88.115.416 94.314 2.13 99.021 3.807 10.457 12.694 19.344 23.151 23.151 4.707 1.714 10.906 1.847 99.021 2.13 98.613.318 101.179.222 110.453-4.104 9.292-4.334 18.082-15.811 19.658-25.666.358-2.242 1.043-4.318 1.52-4.613.482-.298.869-42.425.869-94.537 0-53.468-.377-93.767-.875-93.459-.481.297-1.166-1.276-1.521-3.496-1.026-6.421-4.628-13.028-10.065-18.466-5.562-5.561-11.301-8.629-19.338-10.336C217.347-.542 36.358-.287 29.5 1.401M.48 128c0 51.975.121 73.237.27 47.25.148-25.988.148-68.513 0-94.5C.601 54.762.48 76.025.48 128m101.168-38.164c-.914 1.01-3.238 6.701-5.165 12.647-3.764 11.611-7.134 18.277-14.391 28.464a3425.895 3425.895 0 00-5.125 7.207c-.293.419-2.478.092-4.855-.727-7.237-2.494-19.277.804-24.886 6.816-7.118 7.629-2.721 16.576 7.527 15.317 5.666-.696 10.747-3.406 17.104-9.121 5.125-4.609 5.236-4.653 4.559-1.831-.381 1.591-1.079 3.648-1.552 4.572-1.25 2.444-6.336 5.82-8.768 5.82-2.012 0-2.723 1.04-1.529 2.234.313.312 2.225.119 4.25-.429 6.785-1.836 11.428-8.022 11.034-14.7-.176-2.987.456-4.707 2.841-7.724 1.687-2.135 5.371-7.481 8.188-11.881 2.816-4.4 5.12-7.195 5.12-6.211 0 1.707-1.377 15.843-2.528 25.961-.489 4.294-.345 4.75 1.503 4.75 2.322 0 2.349-.037 19.758-26.5 6.875-10.45 12.191-18.1 11.813-17-2.374 6.92-7.752 31.163-8.238 37.139-.542 6.668-.439 7.185 1.556 7.818 3.067.973 5.343.046 17.398-7.088 5.92-3.503 10.982-6.369 11.25-6.369.269 0 .488 3.375.488 7.5v7.5H155.075l-.287-9.25c-.275-8.837-.392-9.265-2.626-9.581-1.493-.212-6.446 2.047-13.706 6.25-6.253 3.62-11.838 6.581-12.412 6.581-2.04 0-.968-6.173 5.026-28.94 3.338-12.681 5.926-24.069 5.75-25.308-.231-1.627-.991-2.252-2.739-2.252-1.801 0-2.966 1.024-4.554 4-1.174 2.2-7.866 12.55-14.872 23-12.71 18.961-12.735 18.99-12.117 14a5700.81 5700.81 0 012.907-22.5c2.285-17.483 2.128-22-.765-22-.754 0-2.118.826-3.032 1.836m47.322 38.22c-.943 1.763-.857 2.485.451 3.794 2.121 2.121 5.079.398 5.079-2.959 0-3.273-3.909-3.863-5.53-.835m51.996-.515c-.958 1.155-1.056 2.093-.337 3.233 1.433 2.271 2.659 2.47 4.911.798 1.57-1.165 1.74-1.815.853-3.263-1.487-2.429-3.78-2.753-5.427-.768m-42.216 8.148c-2.146.561-2.271 1.897-.25 2.673 1.151.441 1.5 2.342 1.5 8.173v7.598l2.75-.317c2.624-.302 2.773-.612 3.25-6.807.396-5.147.862-6.56 2.25-6.823 1.066-.203 1.75.282 1.75 1.241 0 2.008 1.421 2.009 3.429.002 4.32-4.321-2.027-8.912-6.6-4.774-1.702 1.54-1.829 1.54-1.829 0 0-1.641-2.304-1.997-6.25-.966m21.473.868c-2.615 1.831-2.895 4.248-.595 5.13 1.039.399 2.259-.211 3.372-1.687s2.333-2.086 3.372-1.687c2.299.882 2.118 4.687-.223 4.687-3.353 0-8.173 2.176-9.241 4.172-.787 1.471-.666 2.549.487 4.308 1.407 2.147 2.222 2.342 9.649 2.31 6.212-.028 8.246-.382 8.68-1.514.312-.813.114-1.77-.439-2.127-.554-.357-1.229-3.016-1.5-5.909-.288-3.072-1.243-6.088-2.294-7.25-2.203-2.435-8.088-2.661-11.268-.433m19.527-.868c-2.146.561-2.271 1.897-.25 2.673 1.151.441 1.5 2.342 1.5 8.173v7.598l2.75-.317c2.619-.301 2.765-.603 3.061-6.316.171-3.3.038-7.463-.295-9.25-.617-3.305-1.965-3.815-6.766-2.561M62.5 140.638c-9.899 2.435-14.5 5.898-14.5 10.916 0 6.964 7.517 7.065 15.593.208 5.321-4.518 9.898-9.605 9.237-10.266-.733-.732-8.288-1.36-10.33-.858m119.836 6.929c-.839 2.186 1.055 3.761 3.563 2.965 3.111-.987 2.774-4.532-.43-4.532-1.393 0-2.802.705-3.133 1.567" fill="#1976D2" fill-rule="evenodd"/></svg>